<svg xmlns="http://www.w3.org/2000/svg" xmlns:xlink="http://www.w3.org/1999/xlink" xmlns:lucid="lucid" width="1177" height="757"><g transform="translate(-290 -301)" lucid:page-tab-id="0_0"><path d="M610 634h200v180H610z" fill="#fff"/><path d="M610 709h200v35H610zM610 779h200v35H610z" fill="#e6e6e6"/><path d="M610 634h200v40H610z" fill="#ccc"/><path d="M610 634h200v180H610zM610 674h200" stroke="#666" fill="none"/><use xlink:href="#a" transform="matrix(1,0,0,1,614.9999999999998,676.4999999999997) translate(5 20.155555555555555)"/><use xlink:href="#b" transform="matrix(1,0,0,1,614.9999999999998,676.4999999999997) translate(39.567901234567906 20.155555555555555)"/><use xlink:href="#c" transform="matrix(1,0,0,1,614.9999999999998,711.4999999999997) translate(5 20.155555555555555)"/><use xlink:href="#d" transform="matrix(1,0,0,1,614.9999999999998,711.4999999999997) translate(73.98765432098767 20.155555555555555)"/><use xlink:href="#e" transform="matrix(1,0,0,1,614.9999999999998,746.4999999999997) translate(5 20.155555555555555)"/><use xlink:href="#f" transform="matrix(1,0,0,1,614.9999999999998,781.4999999999997) translate(5 20.155555555555555)"/><use xlink:href="#g" transform="matrix(1,0,0,1,614.9999999999998,781.4999999999997) translate(67.22222222222223 20.155555555555555)"/><path d="M610 634h200v40H610z" stroke="#666" fill="#ffd1ae"/><use xlink:href="#h" transform="matrix(1,0,0,1,614.7999999999997,638.7999999999996) translate(0 19.359722222222224)"/><path d="M950 484h200v168H950z" fill="#fff"/><path d="M950 556h200v32H950zM950 620h200v32H950z" fill="#e6e6e6"/><path d="M950 484h200v40H950z" fill="#ccc"/><path d="M950 484h200v168H950zM950 524h200" stroke="#666" fill="none"/><use xlink:href="#i" transform="matrix(1,0,0,1,954.9999999999998,526.4999999999997) translate(0 17.1)"/><use xlink:href="#j" transform="matrix(1,0,0,1,954.9999999999998,526.4999999999997) translate(70.9 17.1)"/><use xlink:href="#k" transform="matrix(1,0,0,1,954.9999999999998,558.4999999999997) translate(0 17.1)"/><use xlink:href="#l" transform="matrix(1,0,0,1,954.9999999999998,590.4999999999997) translate(0 17.1)"/><use xlink:href="#m" transform="matrix(1,0,0,1,954.9999999999998,590.4999999999997) translate(63 17.1)"/><use xlink:href="#j" transform="matrix(1,0,0,1,954.9999999999998,590.4999999999997) translate(116.95 17.1)"/><use xlink:href="#n" transform="matrix(1,0,0,1,954.9999999999998,622.4999999999997) translate(0 17.1)"/><path d="M950 484h200v40H950z" stroke="#666" fill="#ffeadb"/><use xlink:href="#o" transform="matrix(1,0,0,1,954.7999999999997,488.79999999999967) translate(0 19.359722222222224)"/><use xlink:href="#p" transform="matrix(1,0,0,1,954.7999999999997,488.79999999999967) translate(14.814814814814817 19.359722222222224)"/><path d="M610 354h200v200H610z" fill="#fff"/><path d="M610 426h200v32H610zM610 490h200v32H610z" fill="#e6e6e6"/><path d="M610 354h200v40H610z" fill="#ccc"/><path d="M610 354h200v200H610zM610 394h200" stroke="#666" fill="none"/><use xlink:href="#q" transform="matrix(1,0,0,1,614.9999999999998,396.49999999999966) translate(0 17.1)"/><use xlink:href="#r" transform="matrix(1,0,0,1,614.9999999999998,428.49999999999966) translate(0 17.1)"/><use xlink:href="#s" transform="matrix(1,0,0,1,614.9999999999998,460.49999999999966) translate(0 17.1)"/><use xlink:href="#t" transform="matrix(1,0,0,1,614.9999999999998,492.49999999999966) translate(0 17.1)"/><use xlink:href="#u" transform="matrix(1,0,0,1,614.9999999999998,524.4999999999997) translate(0 17.1)"/><path d="M610 354h200v40H610z" stroke="#666" fill="#ffb781"/><use xlink:href="#v" transform="matrix(1,0,0,1,614.7999999999997,358.79999999999967) translate(0 19.359722222222224)"/><path d="M710 574.5v39.6" stroke="#000" fill="none"/><path d="M700 574.5h20M710 554.5v20M700 633.28l10-20 10 20M710 633.28v-20" stroke="#000" fill="#fff"/><path d="M950 354h200v104H950z" fill="#fff"/><path d="M950 426h200v32H950z" fill="#e6e6e6"/><path d="M950 354h200v40H950z" fill="#ccc"/><path d="M950 354h200v104H950zM950 394h200" stroke="#666" fill="none"/><use xlink:href="#i" transform="matrix(1,0,0,1,954.9999999999998,396.49999999999966) translate(0 17.1)"/><use xlink:href="#j" transform="matrix(1,0,0,1,954.9999999999998,396.49999999999966) translate(70.9 17.1)"/><use xlink:href="#l" transform="matrix(1,0,0,1,954.9999999999998,428.49999999999966) translate(0 17.1)"/><use xlink:href="#m" transform="matrix(1,0,0,1,954.9999999999998,428.49999999999966) translate(63 17.1)"/><use xlink:href="#j" transform="matrix(1,0,0,1,954.9999999999998,428.49999999999966) translate(116.95 17.1)"/><path d="M950 354h200v40H950z" stroke="#666" fill="#ffeadb"/><use xlink:href="#w" transform="matrix(1,0,0,1,954.7999999999997,358.79999999999967) translate(0 19.359722222222224)"/><use xlink:href="#x" transform="matrix(1,0,0,1,954.7999999999997,358.79999999999967) translate(48.345679012345684 19.359722222222224)"/><use xlink:href="#y" transform="matrix(1,0,0,1,954.7999999999997,358.79999999999967) translate(68.09876543209877 19.359722222222224)"/><path d="M950 678h200v328H950z" fill="#fff"/><path d="M950 750h200v32H950zM950 814h200v32H950zM950 878h200v32H950zM950 942h200v32H950z" fill="#e6e6e6"/><path d="M950 678h200v40H950z" fill="#ccc"/><path d="M950 678h200v328H950zM950 718h200" stroke="#666" fill="none"/><use xlink:href="#i" transform="matrix(1,0,0,1,954.9999999999998,720.4999999999997) translate(0 17.1)"/><use xlink:href="#j" transform="matrix(1,0,0,1,954.9999999999998,720.4999999999997) translate(70.9 17.1)"/><use xlink:href="#z" transform="matrix(1,0,0,1,954.9999999999998,752.4999999999997) translate(0 17.1)"/><use xlink:href="#A" transform="matrix(1,0,0,1,954.9999999999998,784.4999999999997) translate(0 17.1)"/><use xlink:href="#B" transform="matrix(1,0,0,1,954.9999999999998,816.4999999999997) translate(0 17.1)"/><use xlink:href="#C" transform="matrix(1,0,0,1,954.9999999999998,848.4999999999997) translate(0 17.1)"/><use xlink:href="#D" transform="matrix(1,0,0,1,954.9999999999998,848.4999999999997) translate(53.95 17.1)"/><use xlink:href="#E" transform="matrix(1,0,0,1,954.9999999999998,880.4999999999997) translate(0 17.1)"/><use xlink:href="#F" transform="matrix(1,0,0,1,954.9999999999998,880.4999999999997) translate(30 17.1)"/><use xlink:href="#G" transform="matrix(1,0,0,1,954.9999999999998,880.4999999999997) translate(60.95 17.1)"/><use xlink:href="#H" transform="matrix(1,0,0,1,954.9999999999998,912.4999999999997) translate(0 17.1)"/><use xlink:href="#D" transform="matrix(1,0,0,1,954.9999999999998,912.4999999999997) translate(76.9 17.1)"/><use xlink:href="#l" transform="matrix(1,0,0,1,954.9999999999998,944.4999999999997) translate(0 17.1)"/><use xlink:href="#m" transform="matrix(1,0,0,1,954.9999999999998,944.4999999999997) translate(63 17.1)"/><use xlink:href="#j" transform="matrix(1,0,0,1,954.9999999999998,944.4999999999997) translate(116.95 17.1)"/><use xlink:href="#I" transform="matrix(1,0,0,1,954.9999999999998,976.4999999999997) translate(0 17.1)"/><use xlink:href="#J" transform="matrix(1,0,0,1,954.9999999999998,976.4999999999997) translate(100.95 17.1)"/><path d="M950 678h200v40H950z" stroke="#666" fill="#ffeadb"/><use xlink:href="#K" transform="matrix(1,0,0,1,954.7999999999997,682.7999999999996) translate(0 19.359722222222224)"/><use xlink:href="#L" transform="matrix(1,0,0,1,954.7999999999997,682.7999999999996) translate(44.44444444444445 19.359722222222224)"/><path d="M610 891h200v72H610z" fill="#fff"/><path d="M610 891h200v40H610z" fill="#ccc"/><path d="M610 891h200v72H610zM610 931h200" stroke="#666" fill="none"/><use xlink:href="#M" transform="matrix(1,0,0,1,614.9999999999998,933.4999999999997) translate(0 17.1)"/><path d="M610 891h200v40H610z" stroke="#666" fill="#ffeadb"/><use xlink:href="#N" transform="matrix(1,0,0,1,614.7999999999997,895.7999999999996) translate(0 19.359722222222224)"/><path d="M710 834.5v36.6" stroke="#000" fill="none"/><path d="M700 834.5h20M710 814.5v20M700 890.28l10-20 10 20M710 890.28v-20" stroke="#000" fill="#fff"/><path d="M830.5 654H868c6.63 0 12-5.37 12-12V386c0-6.63 5.37-12 12-12h38.1" stroke="#000" fill="none"/><path d="M830.5 664v-20M810.5 654h20M949.28 384l-20-10 20-10M949.28 374h-20" stroke="#000" fill="#fff"/><path d="M830.5 654H868c6.63 0 12-5.37 12-12V515.74c0-6.63 5.37-12 12-12h38.1" stroke="#000" fill="none"/><path d="M830.5 664v-20M810.5 654h20M949.28 513.74l-20-10 20-10M949.28 503.74h-20" stroke="#000" fill="#fff"/><path d="M830.5 654H868c6.63 0 12 5.37 12 12v20c0 6.63 5.37 12 12 12h38.1" stroke="#000" fill="none"/><path d="M830.5 664v-20M810.5 654h20M949.28 708l-20-10 20-10M949.28 698h-20" stroke="#000" fill="#fff"/><path d="M330 634h200v104H330z" fill="#fff"/><path d="M330 706h200v32H330z" fill="#e6e6e6"/><path d="M330 634h200v40H330z" fill="#ccc"/><path d="M330 634h200v104H330zM330 674h200" stroke="#666" fill="none"/><use xlink:href="#O" transform="matrix(1,0,0,1,334.9999999999998,676.4999999999997) translate(0 17.1)"/><use xlink:href="#P" transform="matrix(1,0,0,1,334.9999999999998,676.4999999999997) translate(50.85 17.1)"/><use xlink:href="#Q" transform="matrix(1,0,0,1,334.9999999999998,676.4999999999997) translate(75.85 17.1)"/><use xlink:href="#n" transform="matrix(1,0,0,1,334.9999999999998,708.4999999999997) translate(0 17.1)"/><path d="M330 634h200v40H330z" stroke="#666" fill="#ffeadb"/><g><use xlink:href="#R" transform="matrix(1,0,0,1,334.7999999999998,638.7999999999996) translate(0 19.359722222222224)"/><use xlink:href="#S" transform="matrix(1,0,0,1,334.7999999999998,638.7999999999996) translate(76.98765432098767 19.359722222222224)"/></g><path d="M589.5 654h-19.37c-.07 0-.13-.06-.13-.13s-.06-.13-.13-.13H549.9" stroke="#000" fill="none"/><path d="M589.5 644v20M609.5 654h-20M530.72 643.74l20 10-20 10M530.72 653.74h20" stroke="#000" fill="#fff"/><path d="M1230 552.1h200v136h-200z" fill="#fff"/><path d="M1230 624.1h200v32h-200z" fill="#e6e6e6"/><path d="M1230 552.1h200v40h-200z" fill="#ccc"/><path d="M1230 552.1h200v136h-200zM1230 592.1h200" stroke="#666" fill="none"/><g><use xlink:href="#T" transform="matrix(1,0,0,1,1234.9999999999998,594.5999999999997) translate(0 17.1)"/></g><g><use xlink:href="#C" transform="matrix(1,0,0,1,1234.9999999999998,626.5999999999997) translate(0 17.1)"/><use xlink:href="#j" transform="matrix(1,0,0,1,1234.9999999999998,626.5999999999997) translate(53.95 17.1)"/></g><g><use xlink:href="#U" transform="matrix(1,0,0,1,1234.9999999999998,658.5999999999997) translate(0 17.1)"/></g><path d="M1230 552.1h200v40h-200z" stroke="#666" fill="#ffeadb"/><g><use xlink:href="#V" transform="matrix(1,0,0,1,1234.7999999999997,556.8999999999996) translate(0 19.359722222222224)"/></g><path d="M1170.5 572h19.45c.03 0 .05.02.05.05 0 .03.02.05.05.05h20.04" stroke="#000" fill="none"/><path d="M1170.5 582v-20M1150.5 572h20M1229.28 582.1l-20-10 20-10M1229.28 572.1h-20" stroke="#000" fill="#fff"/><defs><path d="M85-194c31 0 48 13 60 33l-1-100h32l1 261h-30c-2-10 0-23-3-31C134-8 116 4 85 4 32 4 16-35 15-94c0-66 23-100 70-100zm9 24c-40 0-46 34-46 75 0 40 6 74 45 74 42 0 51-32 51-76 0-42-9-74-50-73" id="W"/><path d="M84 4C-5 8 30-112 23-190h32v120c0 31 7 50 39 49 72-2 45-101 50-169h31l1 190h-30c-1-10 1-25-2-33-11 22-28 36-60 37" id="X"/><path d="M100-194c63 0 86 42 84 106H49c0 40 14 67 53 68 26 1 43-12 49-29l28 8c-11 28-37 45-77 45C44 4 14-33 15-96c1-61 26-98 85-98zm52 81c6-60-76-77-97-28-3 7-6 17-6 28h103" id="Y"/><g id="a"><use transform="matrix(0.04938271604938272,0,0,0.04938271604938272,0,0)" xlink:href="#W"/><use transform="matrix(0.04938271604938272,0,0,0.04938271604938272,9.876543209876544,0)" xlink:href="#X"/><use transform="matrix(0.04938271604938272,0,0,0.04938271604938272,19.75308641975309,0)" xlink:href="#Y"/></g><path d="M141-36C126-15 110 5 73 4 37 3 15-17 15-53c-1-64 63-63 125-63 3-35-9-54-41-54-24 1-41 7-42 31l-33-3c5-37 33-52 76-52 45 0 72 20 72 64v82c-1 20 7 32 28 27v20c-31 9-61-2-59-35zM48-53c0 20 12 33 32 33 41-3 63-29 60-74-43 2-92-5-92 41" id="Z"/><path d="M59-47c-2 24 18 29 38 22v24C64 9 27 4 27-40v-127H5v-23h24l9-43h21v43h35v23H59v120" id="aa"/><g id="b"><use transform="matrix(0.04938271604938272,0,0,0.04938271604938272,0,0)" xlink:href="#W"/><use transform="matrix(0.04938271604938272,0,0,0.04938271604938272,9.876543209876544,0)" xlink:href="#Z"/><use transform="matrix(0.04938271604938272,0,0,0.04938271604938272,19.75308641975309,0)" xlink:href="#aa"/><use transform="matrix(0.04938271604938272,0,0,0.04938271604938272,24.69135802469136,0)" xlink:href="#Y"/></g><path d="M115-194c55 1 70 41 70 98S169 2 115 4C84 4 66-9 55-30l1 105H24l-1-265h31l2 30c10-21 28-34 59-34zm-8 174c40 0 45-34 45-75s-6-73-45-74c-42 0-51 32-51 76 0 43 10 73 51 73" id="ab"/><path d="M114-163C36-179 61-72 57 0H25l-1-190h30c1 12-1 29 2 39 6-27 23-49 58-41v29" id="ac"/><path d="M100-194c62-1 85 37 85 99 1 63-27 99-86 99S16-35 15-95c0-66 28-99 85-99zM99-20c44 1 53-31 53-75 0-43-8-75-51-75s-53 32-53 75 10 74 51 75" id="ad"/><path d="M115-194c53 0 69 39 70 98 0 66-23 100-70 100C84 3 66-7 56-30L54 0H23l1-261h32v101c10-23 28-34 59-34zm-8 174c40 0 45-34 45-75 0-40-5-75-45-74-42 0-51 32-51 76 0 43 10 73 51 73" id="ae"/><path d="M24 0v-261h32V0H24" id="af"/><path d="M210-169c-67 3-38 105-44 169h-31v-121c0-29-5-50-35-48C34-165 62-65 56 0H25l-1-190h30c1 10-1 24 2 32 10-44 99-50 107 0 11-21 27-35 58-36 85-2 47 119 55 194h-31v-121c0-29-5-49-35-48" id="ag"/><g id="c"><use transform="matrix(0.04938271604938272,0,0,0.04938271604938272,0,0)" xlink:href="#ab"/><use transform="matrix(0.04938271604938272,0,0,0.04938271604938272,9.876543209876544,0)" xlink:href="#ac"/><use transform="matrix(0.04938271604938272,0,0,0.04938271604938272,15.753086419753087,0)" xlink:href="#ad"/><use transform="matrix(0.04938271604938272,0,0,0.04938271604938272,25.629629629629633,0)" xlink:href="#ae"/><use transform="matrix(0.04938271604938272,0,0,0.04938271604938272,35.50617283950618,0)" xlink:href="#af"/><use transform="matrix(0.04938271604938272,0,0,0.04938271604938272,39.40740740740741,0)" xlink:href="#Y"/><use transform="matrix(0.04938271604938272,0,0,0.04938271604938272,49.283950617283956,0)" xlink:href="#ag"/></g><path d="M135-143c-3-34-86-38-87 0 15 53 115 12 119 90S17 21 10-45l28-5c4 36 97 45 98 0-10-56-113-15-118-90-4-57 82-63 122-42 12 7 21 19 24 35" id="ah"/><path d="M117-194c89-4 53 116 60 194h-32v-121c0-31-8-49-39-48C34-167 62-67 57 0H25l-1-190h30c1 10-1 24 2 32 11-22 29-35 61-36" id="ai"/><g id="d"><use transform="matrix(0.04938271604938272,0,0,0.04938271604938272,0,0)" xlink:href="#ah"/><use transform="matrix(0.04938271604938272,0,0,0.04938271604938272,8.88888888888889,0)" xlink:href="#Z"/><use transform="matrix(0.04938271604938272,0,0,0.04938271604938272,18.765432098765434,0)" xlink:href="#aa"/><use transform="matrix(0.04938271604938272,0,0,0.04938271604938272,23.703703703703706,0)" xlink:href="#Y"/><use transform="matrix(0.04938271604938272,0,0,0.04938271604938272,33.580246913580254,0)" xlink:href="#ag"/><use transform="matrix(0.04938271604938272,0,0,0.04938271604938272,48.345679012345684,0)" xlink:href="#Y"/><use transform="matrix(0.04938271604938272,0,0,0.04938271604938272,58.22222222222223,0)" xlink:href="#ai"/><use transform="matrix(0.04938271604938272,0,0,0.04938271604938272,68.09876543209877,0)" xlink:href="#aa"/></g><path d="M24-231v-30h32v30H24zM24 0v-190h32V0H24" id="aj"/><g id="e"><use transform="matrix(0.04938271604938272,0,0,0.04938271604938272,0,0)" xlink:href="#ad"/><use transform="matrix(0.04938271604938272,0,0,0.04938271604938272,9.876543209876544,0)" xlink:href="#ab"/><use transform="matrix(0.04938271604938272,0,0,0.04938271604938272,19.75308641975309,0)" xlink:href="#aa"/><use transform="matrix(0.04938271604938272,0,0,0.04938271604938272,24.69135802469136,0)" xlink:href="#aj"/><use transform="matrix(0.04938271604938272,0,0,0.04938271604938272,28.592592592592595,0)" xlink:href="#ad"/><use transform="matrix(0.04938271604938272,0,0,0.04938271604938272,38.46913580246914,0)" xlink:href="#ai"/><use transform="matrix(0.04938271604938272,0,0,0.04938271604938272,48.345679012345684,0)" xlink:href="#ah"/></g><path d="M96-169c-40 0-48 33-48 73s9 75 48 75c24 0 41-14 43-38l32 2c-6 37-31 61-74 61-59 0-76-41-82-99-10-93 101-131 147-64 4 7 5 14 7 22l-32 3c-4-21-16-35-41-35" id="ak"/><path d="M106-169C34-169 62-67 57 0H25v-261h32l-1 103c12-21 28-36 61-36 89 0 53 116 60 194h-32v-121c2-32-8-49-39-48" id="al"/><g id="f"><use transform="matrix(0.04938271604938272,0,0,0.04938271604938272,0,0)" xlink:href="#ak"/><use transform="matrix(0.04938271604938272,0,0,0.04938271604938272,8.88888888888889,0)" xlink:href="#al"/><use transform="matrix(0.04938271604938272,0,0,0.04938271604938272,18.765432098765434,0)" xlink:href="#ad"/><use transform="matrix(0.04938271604938272,0,0,0.04938271604938272,28.641975308641978,0)" xlink:href="#ah"/><use transform="matrix(0.04938271604938272,0,0,0.04938271604938272,37.53086419753087,0)" xlink:href="#Y"/><use transform="matrix(0.04938271604938272,0,0,0.04938271604938272,47.40740740740741,0)" xlink:href="#ai"/></g><g id="g"><use transform="matrix(0.04938271604938272,0,0,0.04938271604938272,0,0)" xlink:href="#ad"/><use transform="matrix(0.04938271604938272,0,0,0.04938271604938272,9.876543209876544,0)" xlink:href="#ab"/><use transform="matrix(0.04938271604938272,0,0,0.04938271604938272,19.75308641975309,0)" xlink:href="#aa"/><use transform="matrix(0.04938271604938272,0,0,0.04938271604938272,24.69135802469136,0)" xlink:href="#aj"/><use transform="matrix(0.04938271604938272,0,0,0.04938271604938272,28.592592592592595,0)" xlink:href="#ad"/><use transform="matrix(0.04938271604938272,0,0,0.04938271604938272,38.46913580246914,0)" xlink:href="#ai"/></g><path d="M30-248c118-7 216 8 213 122C240-48 200 0 122 0H30v-248zM63-27c89 8 146-16 146-99s-60-101-146-95v194" id="am"/><g id="h"><use transform="matrix(0.04938271604938272,0,0,0.04938271604938272,0,0)" xlink:href="#am"/><use transform="matrix(0.04938271604938272,0,0,0.04938271604938272,12.790123456790125,0)" xlink:href="#Y"/><use transform="matrix(0.04938271604938272,0,0,0.04938271604938272,22.66666666666667,0)" xlink:href="#ak"/><use transform="matrix(0.04938271604938272,0,0,0.04938271604938272,31.555555555555557,0)" xlink:href="#aj"/><use transform="matrix(0.04938271604938272,0,0,0.04938271604938272,35.4567901234568,0)" xlink:href="#ah"/><use transform="matrix(0.04938271604938272,0,0,0.04938271604938272,44.345679012345684,0)" xlink:href="#aj"/><use transform="matrix(0.04938271604938272,0,0,0.04938271604938272,48.24691358024692,0)" xlink:href="#ad"/><use transform="matrix(0.04938271604938272,0,0,0.04938271604938272,58.12345679012346,0)" xlink:href="#ai"/></g><g id="i"><use transform="matrix(0.05,0,0,0.05,0,0)" xlink:href="#W"/><use transform="matrix(0.05,0,0,0.05,10,0)" xlink:href="#Y"/><use transform="matrix(0.05,0,0,0.05,20,0)" xlink:href="#ak"/><use transform="matrix(0.05,0,0,0.05,29,0)" xlink:href="#aj"/><use transform="matrix(0.05,0,0,0.05,32.95,0)" xlink:href="#ah"/><use transform="matrix(0.05,0,0,0.05,41.95,0)" xlink:href="#aj"/><use transform="matrix(0.05,0,0,0.05,45.900000000000006,0)" xlink:href="#ad"/><use transform="matrix(0.05,0,0,0.05,55.900000000000006,0)" xlink:href="#ai"/></g><path d="M101-234c-31-9-42 10-38 44h38v23H63V0H32v-167H5v-23h27c-7-52 17-82 69-68v24" id="an"/><g id="j"><use transform="matrix(0.05,0,0,0.05,0,0)" xlink:href="#ac"/><use transform="matrix(0.05,0,0,0.05,5.95,0)" xlink:href="#Y"/><use transform="matrix(0.05,0,0,0.05,15.949999999999998,0)" xlink:href="#an"/></g><g id="k"><use transform="matrix(0.05,0,0,0.05,0,0)" xlink:href="#al"/><use transform="matrix(0.05,0,0,0.05,10,0)" xlink:href="#Z"/><use transform="matrix(0.05,0,0,0.05,20,0)" xlink:href="#aa"/><use transform="matrix(0.05,0,0,0.05,25,0)" xlink:href="#ah"/></g><g id="l"><use transform="matrix(0.05,0,0,0.05,0,0)" xlink:href="#ak"/><use transform="matrix(0.05,0,0,0.05,9,0)" xlink:href="#al"/><use transform="matrix(0.05,0,0,0.05,19,0)" xlink:href="#ad"/><use transform="matrix(0.05,0,0,0.05,29,0)" xlink:href="#ah"/><use transform="matrix(0.05,0,0,0.05,38,0)" xlink:href="#Y"/><use transform="matrix(0.05,0,0,0.05,48,0)" xlink:href="#ai"/></g><g id="m"><use transform="matrix(0.05,0,0,0.05,0,0)" xlink:href="#ad"/><use transform="matrix(0.05,0,0,0.05,10,0)" xlink:href="#ab"/><use transform="matrix(0.05,0,0,0.05,20,0)" xlink:href="#aa"/><use transform="matrix(0.05,0,0,0.05,25,0)" xlink:href="#aj"/><use transform="matrix(0.05,0,0,0.05,28.950000000000003,0)" xlink:href="#ad"/><use transform="matrix(0.05,0,0,0.05,38.95,0)" xlink:href="#ai"/></g><g id="n"><use transform="matrix(0.05,0,0,0.05,0,0)" xlink:href="#W"/><use transform="matrix(0.05,0,0,0.05,10,0)" xlink:href="#aj"/><use transform="matrix(0.05,0,0,0.05,13.949999999999998,0)" xlink:href="#ah"/><use transform="matrix(0.05,0,0,0.05,22.95,0)" xlink:href="#ak"/><use transform="matrix(0.05,0,0,0.05,31.950000000000003,0)" xlink:href="#X"/><use transform="matrix(0.05,0,0,0.05,41.95,0)" xlink:href="#ah"/><use transform="matrix(0.05,0,0,0.05,50.95,0)" xlink:href="#ah"/><use transform="matrix(0.05,0,0,0.05,59.95,0)" xlink:href="#aj"/><use transform="matrix(0.05,0,0,0.05,63.900000000000006,0)" xlink:href="#ad"/><use transform="matrix(0.05,0,0,0.05,73.9,0)" xlink:href="#ai"/></g><path d="M110-160c48 1 74 30 74 79 0 53-28 85-80 85-65 0-83-55-86-122-5-90 50-162 133-122 14 7 22 21 27 39l-31 6c-5-40-67-38-82-6-9 19-15 44-15 74 11-20 30-34 60-33zm-7 138c34 0 49-23 49-58s-16-56-50-56c-29 0-50 16-49 49 1 36 15 65 50 65" id="ao"/><use transform="matrix(0.04938271604938272,0,0,0.04938271604938272,0,0)" xlink:href="#ao" id="o"/><g id="p"><use transform="matrix(0.04938271604938272,0,0,0.04938271604938272,0,0)" xlink:href="#al"/><use transform="matrix(0.04938271604938272,0,0,0.04938271604938272,9.876543209876544,0)" xlink:href="#Z"/><use transform="matrix(0.04938271604938272,0,0,0.04938271604938272,19.75308641975309,0)" xlink:href="#aa"/><use transform="matrix(0.04938271604938272,0,0,0.04938271604938272,24.69135802469136,0)" xlink:href="#ah"/></g><path d="M50-231l6-30h32l-6 30H50zM6 0l37-190h31L37 0H6" id="ap"/><path d="M133-28C103 26-5 8 13-77c13-62 24-115 90-117 29-1 46 15 56 35l19-102h32L160 0h-30zM45-64c-2 27 10 43 35 43 54-1 69-50 69-103 0-29-15-46-42-46-53-1-58 58-62 106" id="aq"/><g id="q"><use transform="matrix(0.05,0,0,0.05,0,0)" xlink:href="#ap"/><use transform="matrix(0.05,0,0,0.05,3.95,0)" xlink:href="#aq"/></g><path d="M67-162c32-53 139-36 121 50C175-51 163 2 97 4 68 4 52-11 42-31 38 6 28 39 22 75H-9l50-265h29c-1 10 0 20-3 28zm89 36c0-26-10-43-35-43-54 0-67 50-69 103-1 29 14 45 42 46 53 0 62-58 62-106" id="ar"/><path d="M165-48c-4 18 1 34 23 27l-3 20c-29 8-62 0-52-35h-2C116-14 99 4 63 4 30 4 8-16 8-49c0-68 71-67 138-67 10-26 0-56-31-54-26 1-42 9-47 31l-32-5c8-67 160-71 144 15-5 28-9 54-15 81zM42-50c3 52 80 24 89-6 7-12 7-24 11-38-47 1-103-4-100 44" id="as"/><path d="M55-144c13 50 104 24 104 88C159 21 15 23 1-39l26-10c6 40 102 42 102-4-13-50-104-23-104-87 0-71 143-71 148-8l-29 4c-5-35-85-37-89 0" id="at"/><path d="M188 0h-37l-8-164L71 0H34L18-190h31l8 164 75-164h34l8 164 74-164h31" id="au"/><path d="M30-147c31-64 166-65 159 27C183-49 158 1 86 4 9 8 1-88 30-147zM88-20c53 0 68-48 68-100 0-31-11-51-44-50-52 1-68 46-68 97 0 32 13 53 44 53" id="av"/><path d="M66-151c12-25 30-51 66-40l-6 26C45-176 58-65 38 0H6l36-190h30" id="aw"/><g id="r"><use transform="matrix(0.05,0,0,0.05,0,0)" xlink:href="#ar"/><use transform="matrix(0.05,0,0,0.05,10,0)" xlink:href="#as"/><use transform="matrix(0.05,0,0,0.05,20,0)" xlink:href="#at"/><use transform="matrix(0.05,0,0,0.05,29,0)" xlink:href="#at"/><use transform="matrix(0.05,0,0,0.05,38,0)" xlink:href="#au"/><use transform="matrix(0.05,0,0,0.05,50.95,0)" xlink:href="#av"/><use transform="matrix(0.05,0,0,0.05,60.95,0)" xlink:href="#aw"/><use transform="matrix(0.05,0,0,0.05,66.9,0)" xlink:href="#aq"/></g><path d="M111-194c62-3 86 47 72 106H45c-7 38 6 69 45 68 27-1 43-14 53-32l24 11C152-15 129 4 87 4 38 3 12-23 12-71c0-70 32-119 99-123zm44 81c14-66-71-72-95-28-4 8-8 17-11 28h106" id="ax"/><path d="M248-111c6-24 9-61-24-58-72 9-57 108-77 169h-31l26-142c3-37-50-30-64-10C52-115 50-51 37 0H6l36-190h30c-1 10-6 24-4 32 13-43 101-52 105 5 13-22 29-41 61-41 90 0 28 129 23 194h-31" id="ay"/><path d="M6 0l50-261h32L37 0H6" id="az"/><g id="s"><use transform="matrix(0.05,0,0,0.05,0,0)" xlink:href="#ax"/><use transform="matrix(0.05,0,0,0.05,10,0)" xlink:href="#ay"/><use transform="matrix(0.05,0,0,0.05,24.950000000000003,0)" xlink:href="#as"/><use transform="matrix(0.05,0,0,0.05,34.95,0)" xlink:href="#ap"/><use transform="matrix(0.05,0,0,0.05,38.900000000000006,0)" xlink:href="#az"/></g><path d="M67-158c22-48 132-52 116 29L158 0h-32l25-140c3-38-53-32-70-12C52-117 51-52 38 0H6l36-190h30" id="aA"/><g id="t"><use transform="matrix(0.05,0,0,0.05,0,0)" xlink:href="#aA"/><use transform="matrix(0.05,0,0,0.05,10,0)" xlink:href="#as"/><use transform="matrix(0.05,0,0,0.05,20,0)" xlink:href="#ay"/><use transform="matrix(0.05,0,0,0.05,34.95,0)" xlink:href="#ax"/></g><path d="M44-68c0 29 11 47 38 47 30 0 42-19 51-41l28 9C148-21 126 4 82 4 31 4 10-29 12-85c3-77 74-140 146-93 12 8 15 23 18 40l-31 5c-1-22-13-36-36-36-52 0-65 49-65 101" id="aB"/><g id="u"><use transform="matrix(0.05,0,0,0.05,0,0)" xlink:href="#aq"/><use transform="matrix(0.05,0,0,0.05,10,0)" xlink:href="#ax"/><use transform="matrix(0.05,0,0,0.05,20,0)" xlink:href="#aB"/><use transform="matrix(0.05,0,0,0.05,29,0)" xlink:href="#ap"/><use transform="matrix(0.05,0,0,0.05,32.95,0)" xlink:href="#at"/><use transform="matrix(0.05,0,0,0.05,41.95,0)" xlink:href="#ap"/><use transform="matrix(0.05,0,0,0.05,45.900000000000006,0)" xlink:href="#av"/><use transform="matrix(0.05,0,0,0.05,55.900000000000006,0)" xlink:href="#aA"/><use transform="matrix(0.05,0,0,0.05,65.9,0)" xlink:href="#at"/></g><path d="M62-99C39-31 123 0 170-40s38-139 58-208h34C234-144 253 4 115 4 49 4 18-43 31-112l26-136h34" id="aC"/><g id="v"><use transform="matrix(0.04938271604938272,0,0,0.04938271604938272,0,0)" xlink:href="#aC"/><use transform="matrix(0.04938271604938272,0,0,0.04938271604938272,12.790123456790125,0)" xlink:href="#at"/><use transform="matrix(0.04938271604938272,0,0,0.04938271604938272,21.679012345679013,0)" xlink:href="#ax"/><use transform="matrix(0.04938271604938272,0,0,0.04938271604938272,31.555555555555557,0)" xlink:href="#aw"/></g><path d="M153-248C145-148 188 4 80 4 36 3 13-21 6-62l32-5c4 25 16 42 43 43 27 0 39-20 39-49v-147H72v-28h81" id="aD"/><g id="w"><use transform="matrix(0.04938271604938272,0,0,0.04938271604938272,0,0)" xlink:href="#aD"/><use transform="matrix(0.04938271604938272,0,0,0.04938271604938272,8.88888888888889,0)" xlink:href="#X"/><use transform="matrix(0.04938271604938272,0,0,0.04938271604938272,18.765432098765434,0)" xlink:href="#ag"/><use transform="matrix(0.04938271604938272,0,0,0.04938271604938272,33.53086419753087,0)" xlink:href="#ab"/></g><g id="x"><use transform="matrix(0.04938271604938272,0,0,0.04938271604938272,0,0)" xlink:href="#aa"/><use transform="matrix(0.04938271604938272,0,0,0.04938271604938272,4.938271604938272,0)" xlink:href="#ad"/></g><g id="y"><use transform="matrix(0.04938271604938272,0,0,0.04938271604938272,0,0)" xlink:href="#ak"/><use transform="matrix(0.04938271604938272,0,0,0.04938271604938272,8.88888888888889,0)" xlink:href="#ad"/><use transform="matrix(0.04938271604938272,0,0,0.04938271604938272,18.765432098765434,0)" xlink:href="#ai"/><use transform="matrix(0.04938271604938272,0,0,0.04938271604938272,28.641975308641978,0)" xlink:href="#ak"/><use transform="matrix(0.04938271604938272,0,0,0.04938271604938272,37.53086419753087,0)" xlink:href="#af"/><use transform="matrix(0.04938271604938272,0,0,0.04938271604938272,41.4320987654321,0)" xlink:href="#X"/><use transform="matrix(0.04938271604938272,0,0,0.04938271604938272,51.308641975308646,0)" xlink:href="#ah"/><use transform="matrix(0.04938271604938272,0,0,0.04938271604938272,60.19753086419754,0)" xlink:href="#aj"/><use transform="matrix(0.04938271604938272,0,0,0.04938271604938272,64.09876543209877,0)" xlink:href="#ad"/><use transform="matrix(0.04938271604938272,0,0,0.04938271604938272,73.97530864197532,0)" xlink:href="#ai"/><use transform="matrix(0.04938271604938272,0,0,0.04938271604938272,83.85185185185186,0)" xlink:href="#ah"/></g><path d="M16-82v-28h88v28H16" id="aE"/><path d="M108 0H70L1-190h34L89-25l56-165h34" id="aF"/><g id="z"><use transform="matrix(0.05,0,0,0.05,0,0)" xlink:href="#ag"/><use transform="matrix(0.05,0,0,0.05,14.950000000000001,0)" xlink:href="#X"/><use transform="matrix(0.05,0,0,0.05,24.950000000000003,0)" xlink:href="#ah"/><use transform="matrix(0.05,0,0,0.05,33.95,0)" xlink:href="#aa"/><use transform="matrix(0.05,0,0,0.05,38.95,0)" xlink:href="#aE"/><use transform="matrix(0.05,0,0,0.05,44.900000000000006,0)" xlink:href="#al"/><use transform="matrix(0.05,0,0,0.05,54.900000000000006,0)" xlink:href="#Z"/><use transform="matrix(0.05,0,0,0.05,64.9,0)" xlink:href="#aF"/><use transform="matrix(0.05,0,0,0.05,73.9,0)" xlink:href="#Y"/><use transform="matrix(0.05,0,0,0.05,83.9,0)" xlink:href="#ah"/></g><path d="M206 0h-36l-40-164L89 0H53L-1-190h32L70-26l43-164h34l41 164 42-164h31" id="aG"/><g id="A"><use transform="matrix(0.05,0,0,0.05,0,0)" xlink:href="#aG"/><use transform="matrix(0.05,0,0,0.05,12.950000000000001,0)" xlink:href="#Z"/><use transform="matrix(0.05,0,0,0.05,22.950000000000003,0)" xlink:href="#ai"/><use transform="matrix(0.05,0,0,0.05,32.95,0)" xlink:href="#aa"/><use transform="matrix(0.05,0,0,0.05,37.95,0)" xlink:href="#aE"/><use transform="matrix(0.05,0,0,0.05,43.900000000000006,0)" xlink:href="#aa"/><use transform="matrix(0.05,0,0,0.05,48.900000000000006,0)" xlink:href="#ad"/><use transform="matrix(0.05,0,0,0.05,58.900000000000006,0)" xlink:href="#aE"/><use transform="matrix(0.05,0,0,0.05,64.85000000000001,0)" xlink:href="#al"/><use transform="matrix(0.05,0,0,0.05,74.85000000000001,0)" xlink:href="#Z"/><use transform="matrix(0.05,0,0,0.05,84.85000000000001,0)" xlink:href="#aF"/><use transform="matrix(0.05,0,0,0.05,93.85000000000001,0)" xlink:href="#Y"/><use transform="matrix(0.05,0,0,0.05,103.85000000000001,0)" xlink:href="#ah"/></g><g id="B"><use transform="matrix(0.05,0,0,0.05,0,0)" xlink:href="#ak"/><use transform="matrix(0.05,0,0,0.05,9,0)" xlink:href="#ad"/><use transform="matrix(0.05,0,0,0.05,19,0)" xlink:href="#ai"/><use transform="matrix(0.05,0,0,0.05,29,0)" xlink:href="#ah"/><use transform="matrix(0.05,0,0,0.05,38,0)" xlink:href="#aa"/><use transform="matrix(0.05,0,0,0.05,43,0)" xlink:href="#ac"/><use transform="matrix(0.05,0,0,0.05,48.95,0)" xlink:href="#Z"/><use transform="matrix(0.05,0,0,0.05,58.95,0)" xlink:href="#aj"/><use transform="matrix(0.05,0,0,0.05,62.900000000000006,0)" xlink:href="#ai"/><use transform="matrix(0.05,0,0,0.05,72.9,0)" xlink:href="#aa"/><use transform="matrix(0.05,0,0,0.05,77.9,0)" xlink:href="#ah"/></g><g id="C"><use transform="matrix(0.05,0,0,0.05,0,0)" xlink:href="#ad"/><use transform="matrix(0.05,0,0,0.05,10,0)" xlink:href="#ab"/><use transform="matrix(0.05,0,0,0.05,20,0)" xlink:href="#aa"/><use transform="matrix(0.05,0,0,0.05,25,0)" xlink:href="#aj"/><use transform="matrix(0.05,0,0,0.05,28.950000000000003,0)" xlink:href="#ad"/><use transform="matrix(0.05,0,0,0.05,38.95,0)" xlink:href="#ai"/></g><path d="M177-190C167-65 218 103 67 71c-23-6-38-20-44-43l32-5c15 47 100 32 89-28v-30C133-14 115 1 83 1 29 1 15-40 15-95c0-56 16-97 71-98 29-1 48 16 59 35 1-10 0-23 2-32h30zM94-22c36 0 50-32 50-73 0-42-14-75-50-75-39 0-46 34-46 75s6 73 46 73" id="aH"/><g id="D"><use transform="matrix(0.05,0,0,0.05,0,0)" xlink:href="#ac"/><use transform="matrix(0.05,0,0,0.05,5.95,0)" xlink:href="#Z"/><use transform="matrix(0.05,0,0,0.05,15.949999999999998,0)" xlink:href="#aa"/><use transform="matrix(0.05,0,0,0.05,20.95,0)" xlink:href="#aj"/><use transform="matrix(0.05,0,0,0.05,24.9,0)" xlink:href="#ai"/><use transform="matrix(0.05,0,0,0.05,34.9,0)" xlink:href="#aH"/><use transform="matrix(0.05,0,0,0.05,44.9,0)" xlink:href="#ah"/></g><g id="E"><use transform="matrix(0.05,0,0,0.05,0,0)" xlink:href="#aa"/><use transform="matrix(0.05,0,0,0.05,5,0)" xlink:href="#ad"/><use transform="matrix(0.05,0,0,0.05,15,0)" xlink:href="#ab"/></g><path d="M101-251c82-7 93 87 43 132L82-64C71-53 59-42 53-27h129V0H18c2-99 128-94 128-182 0-28-16-43-45-43s-46 15-49 41l-32-3c6-41 34-60 81-64" id="aI"/><path d="M126-127c33 6 58 20 58 59 0 88-139 92-164 29-3-8-5-16-6-25l32-3c6 27 21 44 54 44 32 0 52-15 52-46 0-38-36-46-79-43v-28c39 1 72-4 72-42 0-27-17-43-46-43-28 0-47 15-49 41l-32-3c6-42 35-63 81-64 48-1 79 21 79 65 0 36-21 52-52 59" id="aJ"/><g id="F"><use transform="matrix(0.05,0,0,0.05,0,0)" xlink:href="#aI"/><use transform="matrix(0.05,0,0,0.05,10,0)" xlink:href="#aE"/><use transform="matrix(0.05,0,0,0.05,15.949999999999998,0)" xlink:href="#aJ"/></g><g id="G"><use transform="matrix(0.05,0,0,0.05,0,0)" xlink:href="#ad"/><use transform="matrix(0.05,0,0,0.05,10,0)" xlink:href="#ab"/><use transform="matrix(0.05,0,0,0.05,20,0)" xlink:href="#aa"/><use transform="matrix(0.05,0,0,0.05,25,0)" xlink:href="#aj"/><use transform="matrix(0.05,0,0,0.05,28.950000000000003,0)" xlink:href="#ad"/><use transform="matrix(0.05,0,0,0.05,38.95,0)" xlink:href="#ai"/><use transform="matrix(0.05,0,0,0.05,48.95,0)" xlink:href="#ah"/></g><path d="M179-190L93 31C79 59 56 82 12 73V49c39 6 53-20 64-50L1-190h34L92-34l54-156h33" id="aK"/><g id="H"><use transform="matrix(0.05,0,0,0.05,0,0)" xlink:href="#Z"/><use transform="matrix(0.05,0,0,0.05,10,0)" xlink:href="#W"/><use transform="matrix(0.05,0,0,0.05,20,0)" xlink:href="#aF"/><use transform="matrix(0.05,0,0,0.05,29,0)" xlink:href="#Y"/><use transform="matrix(0.05,0,0,0.05,39,0)" xlink:href="#ac"/><use transform="matrix(0.05,0,0,0.05,44.95,0)" xlink:href="#ah"/><use transform="matrix(0.05,0,0,0.05,53.95,0)" xlink:href="#aj"/><use transform="matrix(0.05,0,0,0.05,57.900000000000006,0)" xlink:href="#aa"/><use transform="matrix(0.05,0,0,0.05,62.900000000000006,0)" xlink:href="#aK"/></g><g id="I"><use transform="matrix(0.05,0,0,0.05,0,0)" xlink:href="#ak"/><use transform="matrix(0.05,0,0,0.05,9,0)" xlink:href="#ad"/><use transform="matrix(0.05,0,0,0.05,19,0)" xlink:href="#ai"/><use transform="matrix(0.05,0,0,0.05,29,0)" xlink:href="#aa"/><use transform="matrix(0.05,0,0,0.05,34,0)" xlink:href="#aj"/><use transform="matrix(0.05,0,0,0.05,37.95,0)" xlink:href="#ai"/><use transform="matrix(0.05,0,0,0.05,47.95,0)" xlink:href="#aH"/><use transform="matrix(0.05,0,0,0.05,57.95,0)" xlink:href="#Y"/><use transform="matrix(0.05,0,0,0.05,67.95,0)" xlink:href="#ai"/><use transform="matrix(0.05,0,0,0.05,77.95,0)" xlink:href="#ak"/><use transform="matrix(0.05,0,0,0.05,86.95,0)" xlink:href="#aK"/></g><g id="J"><use transform="matrix(0.05,0,0,0.05,0,0)" xlink:href="#ab"/><use transform="matrix(0.05,0,0,0.05,10,0)" xlink:href="#af"/><use transform="matrix(0.05,0,0,0.05,13.949999999999998,0)" xlink:href="#Z"/><use transform="matrix(0.05,0,0,0.05,23.95,0)" xlink:href="#ai"/><use transform="matrix(0.05,0,0,0.05,33.95,0)" xlink:href="#ah"/></g><path d="M30 0v-248h33v221h125V0H30" id="aL"/><g id="K"><use transform="matrix(0.04938271604938272,0,0,0.04938271604938272,0,0)" xlink:href="#aL"/><use transform="matrix(0.04938271604938272,0,0,0.04938271604938272,9.876543209876544,0)" xlink:href="#ad"/><use transform="matrix(0.04938271604938272,0,0,0.04938271604938272,19.75308641975309,0)" xlink:href="#ai"/><use transform="matrix(0.04938271604938272,0,0,0.04938271604938272,29.629629629629633,0)" xlink:href="#aH"/></g><g id="L"><use transform="matrix(0.04938271604938272,0,0,0.04938271604938272,0,0)" xlink:href="#Z"/><use transform="matrix(0.04938271604938272,0,0,0.04938271604938272,9.876543209876544,0)" xlink:href="#ai"/><use transform="matrix(0.04938271604938272,0,0,0.04938271604938272,19.75308641975309,0)" xlink:href="#Z"/><use transform="matrix(0.04938271604938272,0,0,0.04938271604938272,29.629629629629633,0)" xlink:href="#af"/><use transform="matrix(0.04938271604938272,0,0,0.04938271604938272,33.53086419753087,0)" xlink:href="#aK"/><use transform="matrix(0.04938271604938272,0,0,0.04938271604938272,42.41975308641976,0)" xlink:href="#ah"/><use transform="matrix(0.04938271604938272,0,0,0.04938271604938272,51.308641975308646,0)" xlink:href="#aj"/><use transform="matrix(0.04938271604938272,0,0,0.04938271604938272,55.20987654320988,0)" xlink:href="#ah"/></g><g id="M"><use transform="matrix(0.05,0,0,0.05,0,0)" xlink:href="#W"/><use transform="matrix(0.05,0,0,0.05,10,0)" xlink:href="#Y"/><use transform="matrix(0.05,0,0,0.05,20,0)" xlink:href="#ah"/><use transform="matrix(0.05,0,0,0.05,29,0)" xlink:href="#ak"/><use transform="matrix(0.05,0,0,0.05,38,0)" xlink:href="#ac"/><use transform="matrix(0.05,0,0,0.05,43.95,0)" xlink:href="#aj"/><use transform="matrix(0.05,0,0,0.05,47.900000000000006,0)" xlink:href="#ab"/><use transform="matrix(0.05,0,0,0.05,57.900000000000006,0)" xlink:href="#aa"/><use transform="matrix(0.05,0,0,0.05,62.900000000000006,0)" xlink:href="#aj"/><use transform="matrix(0.05,0,0,0.05,66.85000000000001,0)" xlink:href="#ad"/><use transform="matrix(0.05,0,0,0.05,76.85000000000001,0)" xlink:href="#ai"/></g><path d="M140-251c81 0 123 46 123 126C263-46 219 4 140 4 59 4 17-45 17-125s42-126 123-126zm0 227c63 0 89-41 89-101s-29-99-89-99c-61 0-89 39-89 99S79-25 140-24" id="aM"/><g id="N"><use transform="matrix(0.04938271604938272,0,0,0.04938271604938272,0,0)" xlink:href="#aM"/><use transform="matrix(0.04938271604938272,0,0,0.04938271604938272,13.827160493827162,0)" xlink:href="#ab"/><use transform="matrix(0.04938271604938272,0,0,0.04938271604938272,23.703703703703706,0)" xlink:href="#aa"/><use transform="matrix(0.04938271604938272,0,0,0.04938271604938272,28.641975308641978,0)" xlink:href="#aj"/><use transform="matrix(0.04938271604938272,0,0,0.04938271604938272,32.543209876543216,0)" xlink:href="#ad"/><use transform="matrix(0.04938271604938272,0,0,0.04938271604938272,42.41975308641976,0)" xlink:href="#ai"/></g><g id="O"><use transform="matrix(0.05,0,0,0.05,0,0)" xlink:href="#an"/><use transform="matrix(0.05,0,0,0.05,5,0)" xlink:href="#ad"/><use transform="matrix(0.05,0,0,0.05,15,0)" xlink:href="#af"/><use transform="matrix(0.05,0,0,0.05,18.95,0)" xlink:href="#af"/><use transform="matrix(0.05,0,0,0.05,22.9,0)" xlink:href="#ad"/><use transform="matrix(0.05,0,0,0.05,32.9,0)" xlink:href="#aG"/></g><g id="P"><use transform="matrix(0.05,0,0,0.05,0,0)" xlink:href="#X"/><use transform="matrix(0.05,0,0,0.05,10,0)" xlink:href="#ab"/></g><g id="Q"><use transform="matrix(0.05,0,0,0.05,0,0)" xlink:href="#W"/><use transform="matrix(0.05,0,0,0.05,10,0)" xlink:href="#Z"/><use transform="matrix(0.05,0,0,0.05,20,0)" xlink:href="#aa"/><use transform="matrix(0.05,0,0,0.05,25,0)" xlink:href="#Y"/></g><g id="R"><use transform="matrix(0.04938271604938272,0,0,0.04938271604938272,0,0)" xlink:href="#aM"/><use transform="matrix(0.04938271604938272,0,0,0.04938271604938272,13.827160493827162,0)" xlink:href="#X"/><use transform="matrix(0.04938271604938272,0,0,0.04938271604938272,23.703703703703706,0)" xlink:href="#aa"/><use transform="matrix(0.04938271604938272,0,0,0.04938271604938272,28.641975308641978,0)" xlink:href="#ak"/><use transform="matrix(0.04938271604938272,0,0,0.04938271604938272,37.53086419753087,0)" xlink:href="#ad"/><use transform="matrix(0.04938271604938272,0,0,0.04938271604938272,47.40740740740741,0)" xlink:href="#ag"/><use transform="matrix(0.04938271604938272,0,0,0.04938271604938272,62.17283950617284,0)" xlink:href="#Y"/></g><path d="M143 0L79-87 56-68V0H24v-261h32v163l83-92h37l-77 82L181 0h-38" id="aN"/><g id="S"><use transform="matrix(0.04938271604938272,0,0,0.04938271604938272,0,0)" xlink:href="#ak"/><use transform="matrix(0.04938271604938272,0,0,0.04938271604938272,8.88888888888889,0)" xlink:href="#al"/><use transform="matrix(0.04938271604938272,0,0,0.04938271604938272,18.765432098765434,0)" xlink:href="#Y"/><use transform="matrix(0.04938271604938272,0,0,0.04938271604938272,28.641975308641978,0)" xlink:href="#ak"/><use transform="matrix(0.04938271604938272,0,0,0.04938271604938272,37.53086419753087,0)" xlink:href="#aN"/><use transform="matrix(0.04938271604938272,0,0,0.04938271604938272,46.41975308641976,0)" xlink:href="#aE"/><use transform="matrix(0.04938271604938272,0,0,0.04938271604938272,52.2962962962963,0)" xlink:href="#aj"/><use transform="matrix(0.04938271604938272,0,0,0.04938271604938272,56.19753086419754,0)" xlink:href="#ai"/></g><g id="T"><use transform="matrix(0.05,0,0,0.05,0,0)" xlink:href="#aa"/><use transform="matrix(0.05,0,0,0.05,5,0)" xlink:href="#aK"/><use transform="matrix(0.05,0,0,0.05,14,0)" xlink:href="#ab"/><use transform="matrix(0.05,0,0,0.05,24,0)" xlink:href="#Y"/></g><g id="U"><use transform="matrix(0.05,0,0,0.05,0,0)" xlink:href="#ak"/><use transform="matrix(0.05,0,0,0.05,9,0)" xlink:href="#ad"/><use transform="matrix(0.05,0,0,0.05,19,0)" xlink:href="#ag"/><use transform="matrix(0.05,0,0,0.05,33.95,0)" xlink:href="#ag"/><use transform="matrix(0.05,0,0,0.05,48.900000000000006,0)" xlink:href="#Y"/><use transform="matrix(0.05,0,0,0.05,58.900000000000006,0)" xlink:href="#ai"/><use transform="matrix(0.05,0,0,0.05,68.9,0)" xlink:href="#aa"/><use transform="matrix(0.05,0,0,0.05,73.9,0)" xlink:href="#ah"/></g><path d="M197 0v-115H63V0H30v-248h33v105h134v-105h34V0h-34" id="aO"/><g id="V"><use transform="matrix(0.04938271604938272,0,0,0.04938271604938272,0,0)" xlink:href="#aO"/><use transform="matrix(0.04938271604938272,0,0,0.04938271604938272,12.790123456790125,0)" xlink:href="#Z"/><use transform="matrix(0.04938271604938272,0,0,0.04938271604938272,22.66666666666667,0)" xlink:href="#aa"/></g></defs></g></svg>